HIERARCHY
ROOT Hips
{
  OFFSET 0 0 0
  CHANNELS 6 Xposition Yposition Zposition Zrotation Yrotation Xrotation
  JOINT LeftThigh
  {
    OFFSET 8.409438 0 -5.917753
    CHANNELS 3 Zrotation Yrotation Xrotation
    JOINT LeftLeg
    {
      OFFSET 0 0 -42.358652
      CHANNELS 3 Zrotation Yrotation Xrotation
      JOINT LeftFoot
      {
        OFFSET 0 0 -39.357303
        CHANNELS 3 Zrotation Yrotation Xrotation
      }
    }
  }
  JOINT RightThigh
  {
    OFFSET -8.409438 0 -5.917753
    CHANNELS 3 Zrotation Yrotation Xrotation
    JOINT RightLeg
    {
      OFFSET 0 0 -42.358652
      CHANNELS 3 Zrotation Yrotation Xrotation
      JOINT RightFoot
      {
        OFFSET 0 0 -39.357303
        CHANNELS 3 Zrotation Yrotation Xrotation
      }
    }
  }
  JOINT SpineLow
  {
    OFFSET 0 0 4.719101
    CHANNELS 3 Zrotation Yrotation Xrotation
    JOINT SpineMid
    {
      OFFSET 0 0 12.899191
      CHANNELS 3 Zrotation Yrotation Xrotation
      JOINT Chest
      {
        OFFSET 0 0 12.899191
        CHANNELS 3 Zrotation Yrotation Xrotation
        JOINT LeftShoulder
        {
          OFFSET 7.550562 1.41573 9.438202
          CHANNELS 3 Zrotation Yrotation Xrotation
          JOINT LeftArm
          {
            OFFSET 9.155056 0 4.247191
            CHANNELS 3 Zrotation Yrotation Xrotation
            JOINT LeftForearm
            {
              OFFSET 0 0 25.771955
              CHANNELS 3 Zrotation Yrotation Xrotation
              JOINT LeftHand
              {
                OFFSET 0 0 25.197169
                CHANNELS 3 Zrotation Yrotation Xrotation
              }
            }
          }
        }
        JOINT RightShoulder
        {
          OFFSET -7.550562 1.41573 9.438202
          CHANNELS 3 Zrotation Yrotation Xrotation
          JOINT RightArm
          {
            OFFSET -9.155056 0 4.247191
            CHANNELS 3 Zrotation Yrotation Xrotation
            JOINT RightForearm
            {
              OFFSET 0 0 -25.771955
              CHANNELS 3 Zrotation Yrotation Xrotation
              JOINT RightHand
              {
                OFFSET 0 0 -25.197169
                CHANNELS 3 Zrotation Yrotation Xrotation
              }
            }
          }
        }
        JOINT Neck
        {
          OFFSET 0 0 15.101124
          CHANNELS 3 Zrotation Yrotation Xrotation
          JOINT Head
          {
            OFFSET 0 0 11.325843
            CHANNELS 3 Zrotation Yrotation Xrotation
            End Site
            {
              OFFSET 0 0 14.157303
            }
          }
        }
      }
    }
  }
}
MOTION
Frames: 16
Frame Time: 0.0
0.0  93.25843  0.0  10.300264  20.633438  -76.866544  -11.841444  -7.64872  -24.077409  -12.127498  2.182942  20.497865  8.634587  1.367261  6.937428  -27.650058  5.77207  -20.664535  -17.328456  16.946334  16.957759  2.380664  1.559729  -0.62629  2.262566  2.156112  -0.672616  6.13914  5.950128  -1.638703  6.139139  5.950128  -1.638703  3.303934  1.149031  13.790108  170.697309  17.593524  -158.388031  -8.132217  11.533138  98.812866  49.828599  -30.832477  11.1136  35.775084  -22.504421  23.46732  -156.798621  77.776226  -167.19144  -3.925157  19.85684  -37.94736  93.480011  -30.925188  19.493009  -21.715383  -3.075752  -2.486145  -16.295433  -2.221811  -1.976584  
0.0  93.25843  0.0  10.504817  20.863012  -76.877025  -11.883088  -7.675775  -24.690141  -12.240892  2.952722  21.531677  8.471684  1.376344  6.82718  -28.015446  5.542461  -21.133809  -16.887593  17.882641  17.812296  2.634002  1.572446  -0.663102  2.240988  2.17477  -0.638154  6.082905  5.997438  -1.544645  6.082905  5.997438  -1.544645  3.680819  1.325351  13.635172  171.166656  17.556083  -158.024679  -7.62401  11.245863  99.034934  49.457365  -30.94787  12.194579  35.898649  -22.494394  23.17372  -152.396195  77.926051  -162.853212  -6.201353  17.032641  -39.521504  91.790919  -30.509468  20.794082  -21.792419  -3.104971  -2.515502  -16.353398  -2.242421  -2.000079  
0.0  93.25843  0.0  10.73668  20.838229  -76.845688  -11.834528  -7.625799  -25.378396  -12.244353  3.708018  22.586089  8.261176  1.364062  6.668697  -28.451252  5.40949  -21.665758  -16.15572  18.551186  18.690361  2.802074  1.671138  -0.710589  2.236815  2.185246  -0.632888  6.071821  6.025476  -1.529669  6.071821  6.025476  -1.529669  3.996264  1.639641  13.562239  171.55592  17.447681  -157.537936  -7.258152  10.917397  99.256468  49.312064  -31.12818  12.999204  35.902963  -22.497545  23.137788  -147.800751  78.188311  -158.423194  -9.016874  13.848015  -41.465103  90.183983  -29.787914  21.988873  -21.806535  -3.016094  -2.499356  -16.36376  -2.176182  -1.984868  
0.0  93.25843  0.0  11.028624  20.649418  -76.852179  -11.587845  -7.269856  -25.913006  -12.367781  4.253011  23.531194  8.203357  1.342212  6.624042  -28.885166  5.406773  -22.204796  -15.346461  19.099904  19.510154  2.864704  1.800918  -0.764342  2.22943  2.196224  -0.632845  6.051455  6.055295  -1.52925  6.051455  6.055295  -1.52925  4.238766  2.031094  13.466235  171.928874  17.348534  -156.910013  -6.996159  10.606677  99.444515  49.378354  -31.429007  13.524206  35.8604  -22.486689  23.266365  -142.665277  78.582195  -153.537099  -12.135027  10.315956  -43.801344  88.586049  -28.907403  23.115533  -21.728404  -2.842602  -2.458442  -16.304685  -2.047615  -1.947586  
0.0  93.25843  0.0  11.332457  20.343028  -76.912679  -11.059042  -6.590276  -26.240034  -12.224704  4.493708  24.738357  7.873226  1.226458  6.325572  -29.223248  5.456807  -22.769  -14.575447  19.664317  20.315648  2.958071  1.912072  -0.849803  2.216025  2.215796  -0.624375  6.015266  6.107694  -1.50556  6.015266  6.107693  -1.50556  4.461753  2.34126  13.26991  172.178654  17.18314  -156.079967  -6.810422  10.293273  99.581809  49.514157  -31.876658  13.891366  35.738544  -22.488037  23.394271  -136.955645  79.088217  -148.219063  -15.31134  6.434777  -46.474692  86.90186  -27.89768  24.325208  -21.570266  -2.659893  -2.410737  -16.185564  -1.912655  -1.904551  
0.0  93.25843  0.0  11.595655  19.844034  -76.989803  -10.217094  -5.656876  -26.349449  -12.621633  4.503697  25.431168  7.752209  1.234854  6.254211  -29.431519  5.466866  -23.376241  -13.81139  20.264893  21.053439  3.071113  1.986936  -0.930657  2.195839  2.240853  -0.610641  5.960943  6.174472  -1.467633  5.960943  6.174472  -1.467633  4.776939  2.590217  12.967138  172.248132  17.007885  -155.022966  -6.784287  10.01418  99.69951  49.470755  -32.388438  14.286935  35.578345  -22.47862  23.423353  -131.007131  79.704891  -142.864335  -18.288828  2.392616  -49.366676  85.007979  -26.684058  25.768844  -21.277026  -2.500126  -2.375009  -15.96522  -1.794981  -1.870817  
0.0  93.25843  0.0  11.800692  19.100372  -77.082667  -9.222047  -4.7864  -26.386842  -12.775586  4.407969  26.133036  7.301149  1.269735  5.986296  -29.396175  5.437476  -23.945296  -13.076255  20.849894  21.63815  3.529806  2.213107  -0.970263  2.176567  2.26635  -0.605597  5.908314  6.243266  -1.45341  5.908314  6.243265  -1.45341  5.179116  2.816252  12.667174  172.328598  16.905214  -153.691482  -6.840801  9.945476  99.814747  49.171957  -32.847745  14.94952  35.252315  -22.426443  23.433933  -125.076847  80.484397  -137.859596  -20.911114  -1.555411  -52.344558  82.972476  -25.23232  27.320492  -20.85072  -2.344286  -2.318085  -15.645  -1.68144  -1.820911  
0.0  93.25843  0.0  11.990498  18.139714  -77.228876  -8.262362  -3.974906  -26.352284  -12.827032  4.298896  26.722057  6.983709  1.386227  5.845106  -29.185189  5.429808  -24.447623  -12.331337  21.361566  22.112876  3.599431  2.268207  -1.035346  2.161559  2.300586  -0.613111  5.866076  6.337123  -1.472452  5.866076  6.337123  -1.472453  5.551189  3.009581  12.472888  172.57928  16.883777  -152.091598  -6.898331  10.070702  99.953941  48.72373  -33.203555  16.005492  34.635065  -22.351853  23.536089  -118.903262  81.480391  -133.061871  -23.17769  -5.187437  -55.316351  80.962963  -23.520493  28.713978  -20.345961  -2.213043  -2.206096  -15.265783  -1.588416  -1.730398  
0.0  93.25843  0.0  12.136115  16.813592  -77.431521  -7.220637  -3.117221  -26.301696  -12.977808  4.26216  27.170596  6.666913  1.481735  5.625511  -28.651608  5.44539  -24.904545  -11.600347  21.801101  22.494345  3.769527  2.428857  -1.114418  2.157268  2.338119  -0.644515  5.85081  6.442293  -1.555636  5.85081  6.442293  -1.555636  5.90516  3.209857  12.399794  173.066754  16.956801  -150.296351  -6.914788  10.245429  100.17069  48.272899  -33.434953  17.369887  33.870437  -22.298474  23.768227  -112.30585  82.711352  -128.257677  -25.132384  -8.401523  -58.24537  79.151601  -21.610988  29.604685  -19.724409  -2.108752  -2.061019  -14.798937  -1.516911  -1.615714  
0.0  93.25843  0.0  12.192356  15.018872  -77.688336  -5.769176  -2.46669  -26.056614  -13.156937  4.320457  27.431794  6.524749  1.629723  5.464666  -27.649597  5.479595  -25.378278  -10.930335  22.189719  22.835237  3.795814  2.468908  -1.14458  2.174427  2.37703  -0.693901  5.892439  6.553285  -1.685841  5.892439  6.553285  -1.685841  6.138779  3.476944  12.358521  173.827906  17.123012  -148.373542  -6.813217  10.277614  100.528204  47.987952  -33.53901  18.763703  33.028801  -22.187586  24.066593  -103.661234  84.187213  -121.827286  -26.870405  -11.333248  -61.127472  77.871962  -19.744792  29.795664  -18.97784  -2.047887  -1.943888  -14.23854  -1.477235  -1.523155  
0.0  93.25843  0.0  12.220887  12.926776  -78.023875  -4.422771  -2.082486  -25.664492  -13.081009  4.572434  27.484072  6.220492  1.731665  5.151823  -26.426291  5.558854  -25.849695  -10.281134  22.51102  23.146781  3.936885  2.572458  -1.160513  2.198804  2.426552  -0.737001  5.954184  6.692932  -1.79713  5.954184  6.692932  -1.79713  6.106752  3.588888  12.090542  174.670915  17.183505  -146.52018  -6.526148  10.011377  100.986165  47.924628  -33.714307  19.918276  32.116164  -22.031782  24.324407  -89.034627  85.818042  -109.76464  -28.402856  -14.208506  -64.01533  77.13003  -17.963717  29.362593  -18.14426  -2.047926  -1.899985  -13.61326  -1.481081  -1.487246  
0.0  93.25843  0.0  12.239438  10.561069  -78.410425  -3.264751  -1.946101  -25.172376  -12.544938  4.809634  27.478334  6.233869  1.862887  5.051089  -25.048471  5.672413  -26.347617  -9.664538  22.734389  23.425178  4.035873  2.58131  -1.146196  2.230506  2.48111  -0.774942  6.036321  6.84613  -1.893001  6.03632  6.84613  -1.893001  5.906921  3.848384  11.807906  175.456316  17.520708  -144.590542  -6.386857  9.434843  101.598099  48.028033  -33.900737  20.860063  31.133385  -21.835541  24.5571  -57.548613  87.149906  -81.042598  -29.522644  -17.20568  -67.060994  76.80097  -16.2159  28.466859  -17.219276  -2.081177  -1.937313  -12.91978  -1.507719  -1.512937  
0.0  93.25843  0.0  12.264774  7.935326  -78.872655  -2.339589  -1.987605  -24.556612  -11.620582  5.014142  27.362418  6.210212  2.003516  4.940543  -23.549259  5.833328  -26.853472  -9.018496  22.808568  23.72607  4.350763  2.742126  -1.166108  2.256746  2.537674  -0.813713  6.103217  7.004811  -1.991433  6.103217  7.004811  -1.991433  5.578059  4.047274  11.461469  176.159953  17.92016  -142.71123  -6.356066  8.689702  102.343562  48.347083  -34.245694  21.600211  30.140517  -21.65207  24.827678  -7.637465  87.044799  -34.009889  -30.00737  -20.233736  -70.361839  76.587418  -14.471469  27.388559  -16.139587  -2.126236  -2.001588  -12.110411  -1.543101  -1.558504  
0.0  93.25843  0.0  12.312057  5.045824  -79.422169  -1.566971  -2.078933  -23.822488  -10.375766  5.095135  27.196894  6.452091  2.154367  5.008571  -21.917347  6.068293  -27.309408  -8.361291  22.706162  24.00247  4.485665  2.725981  -1.181144  2.277426  2.582814  -0.850215  6.15518  7.132002  -2.08519  6.155179  7.132001  -2.08519  5.168946  4.352499  11.019991  176.738298  18.585283  -140.969676  -6.627826  7.930182  103.164463  48.678609  -34.699673  22.301809  29.149473  -21.390691  25.155151  23.265697  85.421827  -6.019149  -29.69742  -23.07725  -73.864121  76.321655  -12.720063  26.389784  -14.883734  -2.125533  -2.085238  -11.168921  -1.544464  -1.616689  
0.0  93.25843  0.0  12.362367  1.868077  -80.058526  -0.702741  -2.047279  -22.917805  -8.983704  4.969525  26.989301  6.639651  2.291079  5.04235  -20.148789  6.340006  -27.712783  -7.675965  22.428413  24.229781  4.797726  2.846749  -1.18972  2.295633  2.619249  -0.878036  6.201373  7.234592  -2.156158  6.201373  7.234592  -2.156158  4.679849  4.759808  10.617867  177.296713  19.698123  -139.171315  -7.489869  7.434355  104.45911  49.108649  -34.645928  22.844848  28.145921  -21.010048  25.511688  38.388942  83.254801  6.146816  -28.701159  -25.494533  -77.447544  75.936959  -11.046826  25.522322  -13.453213  -2.107742  -2.19031  -10.096475  -1.533489  -1.689947  
0.0  93.25843  0.0  12.438351  -1.578254  -80.769739  0.304671  -1.930181  -21.878474  -7.491923  4.676226  26.723333  6.836257  2.41665  5.092109  -18.294931  6.658024  -28.054709  -6.990077  21.958882  24.372165  4.959959  2.832609  -1.179615  2.320009  2.64301  -0.902009  6.265108  7.302443  -2.216994  6.265108  7.302444  -2.216994  4.020683  5.274251  10.311387  177.990596  21.311276  -137.313237  -8.305037  7.343896  105.647718  49.793634  -34.885886  23.30323  27.091225  -20.521373  25.821786  48.847068  80.822308  13.661408  -27.248212  -27.468494  -80.996434  75.316377  -9.515146  24.670138  -11.885198  -2.047232  -2.287373  -8.920759  -1.491631  -1.755971  
